<svg width="123" height="32" viewBox="0 0 123 32" fill="none" xmlns="http://www.w3.org/2000/svg">
<path d="M58.5341 13H63.0682C63.0511 9.57386 60.4091 7.30682 56.1818 7.30682C52.0312 7.30682 49.0994 9.53977 49.125 12.8636C49.1165 15.5909 51.0085 17.108 54.1023 17.7727L55.8409 18.1477C57.7841 18.5739 58.4489 19.0597 58.4659 19.8523C58.4489 20.7131 57.6648 21.3182 56.1477 21.3182C54.3324 21.3182 53.2585 20.4659 53.1818 18.8636H48.6818C48.6989 23.2443 51.6648 25.2045 56.2159 25.2045C60.6392 25.2045 63.2898 23.2955 63.3068 19.8523C63.2898 17.1932 61.7045 15.3267 57.8523 14.5L56.4205 14.1932C54.767 13.8438 54.0256 13.358 54.0682 12.5227C54.0767 11.7557 54.7159 11.1932 56.1818 11.1932C57.7159 11.1932 58.4403 11.8665 58.5341 13ZM82.2585 16.2727C82.2585 10.4432 78.5085 7.30682 73.7698 7.30682C68.9971 7.30682 65.2812 10.4432 65.2812 16.2727C65.2812 22.0682 68.9971 25.2386 73.7698 25.2386C78.5085 25.2386 82.2585 22.1023 82.2585 16.2727ZM77.3835 16.2727C77.3835 19.4091 76.1221 21.1136 73.7698 21.1136C71.4176 21.1136 70.1562 19.4091 70.1562 16.2727C70.1562 13.1364 71.4176 11.4318 73.7698 11.4318C76.1221 11.4318 77.3835 13.1364 77.3835 16.2727ZM84.6909 25H89.4296V19.2386H91.0659L94.1341 25H99.2818L95.7364 18.4886C97.5943 17.5938 98.7023 15.8977 98.7023 13.4773C98.7023 9.76136 96.1029 7.54545 92.225 7.54545H84.6909V25ZM89.4296 15.5568V11.3295H91.1C92.762 11.3295 93.7591 11.9773 93.7591 13.4773C93.7591 14.9688 92.762 15.5568 91.1 15.5568H89.4296ZM105.496 25L106.502 21.6591H112.263L113.269 25H118.383L112.621 7.54545H106.144L100.383 25H105.496ZM107.576 18.1136L109.314 12.3523H109.451L111.189 18.1136H107.576Z" fill="#363940"/>
<path d="M58.5341 13H63.0682C63.0511 9.57386 60.4091 7.30682 56.1818 7.30682C52.0312 7.30682 49.0994 9.53977 49.125 12.8636C49.1165 15.5909 51.0085 17.108 54.1023 17.7727L55.8409 18.1477C57.7841 18.5739 58.4489 19.0597 58.4659 19.8523C58.4489 20.7131 57.6648 21.3182 56.1477 21.3182C54.3324 21.3182 53.2585 20.4659 53.1818 18.8636H48.6818C48.6989 23.2443 51.6648 25.2045 56.2159 25.2045C60.6392 25.2045 63.2898 23.2955 63.3068 19.8523C63.2898 17.1932 61.7045 15.3267 57.8523 14.5L56.4205 14.1932C54.767 13.8438 54.0256 13.358 54.0682 12.5227C54.0767 11.7557 54.7159 11.1932 56.1818 11.1932C57.7159 11.1932 58.4403 11.8665 58.5341 13ZM82.2585 16.2727C82.2585 10.4432 78.5085 7.30682 73.7698 7.30682C68.9971 7.30682 65.2812 10.4432 65.2812 16.2727C65.2812 22.0682 68.9971 25.2386 73.7698 25.2386C78.5085 25.2386 82.2585 22.1023 82.2585 16.2727ZM77.3835 16.2727C77.3835 19.4091 76.1221 21.1136 73.7698 21.1136C71.4176 21.1136 70.1562 19.4091 70.1562 16.2727C70.1562 13.1364 71.4176 11.4318 73.7698 11.4318C76.1221 11.4318 77.3835 13.1364 77.3835 16.2727ZM84.6909 25H89.4296V19.2386H91.0659L94.1341 25H99.2818L95.7364 18.4886C97.5943 17.5938 98.7023 15.8977 98.7023 13.4773C98.7023 9.76136 96.1029 7.54545 92.225 7.54545H84.6909V25ZM89.4296 15.5568V11.3295H91.1C92.762 11.3295 93.7591 11.9773 93.7591 13.4773C93.7591 14.9688 92.762 15.5568 91.1 15.5568H89.4296ZM105.496 25L106.502 21.6591H112.263L113.269 25H118.383L112.621 7.54545H106.144L100.383 25H105.496ZM107.576 18.1136L109.314 12.3523H109.451L111.189 18.1136H107.576Z" fill="black" fill-opacity="0.2"/>
<rect width="25.6" height="25.6" rx="2" fill="#6E38F7"/>
<rect opacity="0.8" x="6.39999" y="6.40002" width="25.6" height="25.6" rx="2" fill="#9873F7"/>
</svg>
